<?xml version="1.0" standalone="no"?>
<!DOCTYPE svg PUBLIC "-//W3C//DTD SVG 20010904//EN"
 "http://www.w3.org/TR/2001/REC-SVG-20010904/DTD/svg10.dtd">
<svg version="1.0" xmlns="http://www.w3.org/2000/svg"
 width="500.000000pt" height="500.000000pt" viewBox="0 0 500.000000 500.000000"
 preserveAspectRatio="xMidYMid meet">

<g transform="translate(0.000000,500.000000) scale(0.100000,-0.100000)"
fill="#000000" stroke="none">
<path d="M2869 3755 c-62 -34 -59 27 -59 -1204 0 -1235 -3 -1172 62 -1208 31
-17 83 -18 878 -21 790 -2 847 -1 880 15 66 33 71 58 68 320 l-3 233 -28 27
-27 28 -498 5 -497 5 -5 878 -5 879 -33 29 -32 29 -338 0 c-272 -1 -342 -4
-363 -15z m661 -988 l5 -889 24 -19 c22 -18 46 -19 522 -19 l499 0 0 -200 0
-200 -825 0 -825 0 0 1110 0 1110 298 -2 297 -3 5 -888z"/>
<path d="M397 3702 c-16 -17 -17 -98 -17 -1123 0 -984 2 -1107 16 -1127 15
-22 16 -22 325 -22 l310 0 24 25 25 24 0 374 c0 277 3 376 12 385 9 9 84 12
277 12 191 0 293 4 361 15 246 40 435 150 546 316 79 119 114 243 114 402 -1
197 -60 346 -188 475 -117 117 -260 191 -447 233 -97 22 -121 23 -721 26 -596
4 -621 3 -637 -15z m1133 -498 c54 -25 107 -76 127 -123 18 -43 18 -149 0
-193 -23 -54 -74 -105 -125 -125 -39 -15 -77 -18 -235 -18 -175 0 -190 1 -203
19 -19 27 -21 414 -1 438 20 26 35 28 217 25 153 -2 181 -5 220 -23z"/>
</g>
</svg>
